<?xml version="1.0" encoding="UTF-8"?>
<svg xmlns="http://www.w3.org/2000/svg" xmlns:xlink="http://www.w3.org/1999/xlink" width="97px" height="44px" viewBox="0 0 97 44" version="1.1">
<g id="surface1">
<path style=" stroke:none;fill-rule:nonzero;fill:rgb(92.941177%,19.607843%,21.568628%);fill-opacity:1;" d="M 5.238281 0.03125 C 5.230469 0.0507812 5.226562 0.765625 5.230469 1.621094 L 5.238281 3.171875 L 8.375 3.171875 L 8.375 0.0117188 L 6.8125 0.00390625 C 5.578125 -0.00390625 5.246094 0.00390625 5.238281 0.03125 Z M 5.238281 0.03125 "/>
<path style=" stroke:none;fill-rule:nonzero;fill:rgb(17.647059%,33.333334%,57.647061%);fill-opacity:1;" d="M 0 5.804688 L 0 7.957031 L 4.265625 7.957031 L 4.265625 3.65625 L 0 3.65625 Z M 0 5.804688 "/>
<path style=" stroke:none;fill-rule:nonzero;fill:rgb(17.647059%,33.333334%,57.647061%);fill-opacity:1;" d="M 1.425781 11.988281 C 2.144531 13.433594 3.292969 15.726562 3.96875 17.089844 C 4.648438 18.449219 5.675781 20.511719 6.253906 21.667969 C 8.363281 25.894531 8.242188 25.644531 8.242188 25.8125 C 8.242188 25.902344 8.21875 26.015625 8.183594 26.097656 C 8.148438 26.171875 8.078125 26.324219 8.023438 26.441406 C 7.972656 26.550781 7.902344 26.710938 7.867188 26.792969 C 7.828125 26.871094 7.757812 27.027344 7.707031 27.140625 C 7.652344 27.253906 7.582031 27.410156 7.546875 27.492188 C 7.507812 27.574219 7.441406 27.722656 7.398438 27.820312 C 7.207031 28.238281 7.132812 28.410156 7.054688 28.578125 C 7.007812 28.671875 6.941406 28.816406 6.90625 28.898438 C 6.871094 28.976562 6.804688 29.125 6.761719 29.226562 C 6.660156 29.453125 6.535156 29.722656 6.4375 29.9375 C 6.398438 30.023438 6.324219 30.183594 6.277344 30.289062 C 6.230469 30.394531 6.15625 30.550781 6.117188 30.640625 C 5.980469 30.945312 5.855469 31.210938 5.777344 31.386719 C 5.730469 31.484375 5.664062 31.625 5.628906 31.707031 C 5.59375 31.789062 5.519531 31.953125 5.464844 32.074219 C 5.410156 32.195312 5.347656 32.332031 5.324219 32.382812 C 5.304688 32.429688 5.210938 32.625 5.125 32.816406 C 5.035156 33.007812 4.964844 33.167969 4.964844 33.175781 C 4.964844 33.179688 4.894531 33.335938 4.671875 33.816406 C 4.628906 33.914062 4.5625 34.054688 4.527344 34.136719 C 4.488281 34.214844 4.421875 34.367188 4.378906 34.464844 C 4.1875 34.882812 4.113281 35.054688 4.035156 35.21875 C 3.992188 35.316406 3.925781 35.460938 3.890625 35.542969 C 3.851562 35.621094 3.78125 35.78125 3.730469 35.894531 C 3.675781 36.003906 3.59375 36.1875 3.539062 36.304688 C 3.492188 36.414062 3.417969 36.574219 3.382812 36.65625 C 3.347656 36.734375 3.285156 36.867188 3.25 36.949219 C 3.214844 37.027344 3.140625 37.191406 3.085938 37.3125 C 3.03125 37.433594 2.964844 37.570312 2.945312 37.621094 C 2.921875 37.667969 2.832031 37.863281 2.746094 38.054688 C 2.65625 38.246094 2.582031 38.40625 2.582031 38.414062 C 2.582031 38.417969 2.511719 38.578125 2.421875 38.765625 C 2.335938 38.953125 2.265625 39.109375 2.265625 39.117188 C 2.265625 39.121094 2.191406 39.28125 2.105469 39.464844 C 2.015625 39.652344 1.945312 39.808594 1.945312 39.816406 C 1.945312 39.820312 1.890625 39.941406 1.824219 40.085938 C 1.6875 40.386719 1.597656 40.578125 1.507812 40.78125 C 1.472656 40.859375 1.402344 41.019531 1.351562 41.132812 C 1.296875 41.242188 1.226562 41.402344 1.191406 41.484375 C 1.152344 41.5625 1.085938 41.714844 1.039062 41.820312 C 0.988281 41.925781 0.917969 42.082031 0.878906 42.171875 C 0.839844 42.257812 0.742188 42.46875 0.664062 42.636719 C 0.585938 42.804688 0.523438 42.945312 0.523438 42.949219 C 0.523438 42.953125 0.460938 43.085938 0.390625 43.246094 C 0.203125 43.644531 0.117188 43.84375 0.117188 43.871094 C 0.117188 43.886719 2.246094 43.898438 5.042969 43.898438 L 9.976562 43.898438 L 10.003906 43.800781 C 10.023438 43.753906 10.074219 43.601562 10.121094 43.472656 C 10.171875 43.34375 10.285156 43.035156 10.375 42.785156 C 10.464844 42.539062 10.550781 42.304688 10.566406 42.269531 C 10.578125 42.234375 10.683594 41.949219 10.796875 41.640625 C 10.910156 41.328125 11.015625 41.042969 11.03125 41.007812 C 11.046875 40.96875 11.132812 40.738281 11.222656 40.496094 C 11.308594 40.25 11.390625 40.019531 11.40625 39.984375 C 11.421875 39.949219 11.628906 39.382812 11.875 38.726562 C 12.113281 38.066406 12.386719 37.328125 12.480469 37.074219 C 12.578125 36.828125 12.667969 36.570312 12.691406 36.503906 C 12.710938 36.445312 12.828125 36.132812 12.945312 35.820312 C 13.886719 33.269531 14.136719 32.59375 14.136719 32.570312 C 14.136719 32.554688 14.203125 32.542969 14.289062 32.542969 C 14.441406 32.542969 14.441406 32.542969 14.496094 32.664062 C 14.597656 32.898438 14.695312 33.128906 14.835938 33.441406 C 14.867188 33.507812 14.890625 33.570312 14.890625 33.578125 C 14.890625 33.585938 14.933594 33.6875 14.988281 33.808594 C 15.140625 34.140625 15.238281 34.355469 15.238281 34.371094 C 15.238281 34.378906 15.277344 34.464844 15.320312 34.566406 C 15.492188 34.9375 15.558594 35.089844 15.558594 35.101562 C 15.558594 35.109375 15.59375 35.195312 15.640625 35.300781 C 15.808594 35.667969 15.875 35.824219 15.875 35.835938 C 15.875 35.839844 15.914062 35.929688 15.960938 36.03125 C 16.046875 36.222656 16.113281 36.375 16.226562 36.625 C 16.292969 36.789062 16.335938 36.886719 16.421875 37.078125 C 16.453125 37.152344 16.507812 37.273438 16.542969 37.355469 C 16.671875 37.65625 16.789062 37.917969 16.878906 38.125 C 16.917969 38.210938 16.949219 38.285156 16.949219 38.292969 C 16.949219 38.300781 16.988281 38.386719 17.035156 38.488281 C 17.203125 38.859375 17.269531 39.011719 17.269531 39.023438 C 17.269531 39.03125 17.308594 39.117188 17.355469 39.222656 C 17.523438 39.589844 17.589844 39.746094 17.589844 39.757812 C 17.589844 39.761719 17.625 39.851562 17.671875 39.953125 C 17.839844 40.320312 17.90625 40.476562 17.90625 40.488281 C 17.90625 40.496094 17.945312 40.582031 17.992188 40.683594 C 18.089844 40.898438 18.15625 41.046875 18.285156 41.351562 C 18.335938 41.472656 18.410156 41.636719 18.445312 41.71875 C 18.484375 41.796875 18.550781 41.964844 18.605469 42.082031 C 18.695312 42.292969 18.746094 42.410156 18.910156 42.773438 C 18.949219 42.863281 18.980469 42.9375 18.980469 42.945312 C 18.980469 42.953125 19.019531 43.042969 19.066406 43.144531 C 19.171875 43.378906 19.25 43.550781 19.332031 43.742188 L 19.394531 43.898438 L 29.257812 43.898438 L 27.070312 39.5 C 25.867188 37.082031 24.171875 33.679688 23.308594 31.941406 C 20.265625 25.84375 20.347656 26.011719 20.347656 25.808594 C 20.347656 25.660156 20.363281 25.597656 20.449219 25.4375 C 20.507812 25.328125 20.566406 25.226562 20.578125 25.210938 C 20.589844 25.191406 20.660156 25.066406 20.730469 24.925781 C 20.808594 24.789062 20.890625 24.632812 20.921875 24.574219 C 20.949219 24.523438 21.019531 24.398438 21.070312 24.304688 C 21.125 24.207031 21.175781 24.113281 21.1875 24.097656 C 21.199219 24.082031 21.269531 23.957031 21.339844 23.820312 C 21.464844 23.589844 21.546875 23.429688 21.691406 23.175781 C 21.761719 23.042969 21.90625 22.789062 21.992188 22.625 C 22.0625 22.488281 22.207031 22.230469 22.300781 22.0625 C 22.371094 21.9375 22.511719 21.679688 22.601562 21.515625 C 22.664062 21.398438 22.75 21.238281 22.917969 20.933594 C 22.957031 20.867188 23.015625 20.753906 23.058594 20.679688 C 23.25 20.328125 23.285156 20.265625 23.363281 20.117188 C 23.410156 20.03125 23.480469 19.90625 23.519531 19.835938 C 23.609375 19.671875 23.746094 19.414062 23.820312 19.285156 C 23.914062 19.117188 24.054688 18.859375 24.128906 18.722656 C 24.21875 18.558594 24.359375 18.300781 24.429688 18.171875 C 24.460938 18.117188 24.53125 17.988281 24.582031 17.894531 C 24.636719 17.796875 24.703125 17.675781 24.730469 17.628906 C 24.753906 17.582031 24.824219 17.457031 24.878906 17.351562 C 24.972656 17.179688 25.03125 17.074219 25.203125 16.765625 C 25.234375 16.710938 25.3125 16.566406 25.375 16.445312 C 25.480469 16.25 25.554688 16.117188 25.800781 15.667969 C 25.835938 15.605469 25.921875 15.453125 25.984375 15.332031 C 26.050781 15.210938 26.15625 15.011719 26.222656 14.894531 C 26.292969 14.773438 26.375 14.625 26.40625 14.566406 C 26.441406 14.503906 26.515625 14.367188 26.574219 14.257812 C 26.738281 13.953125 26.949219 13.574219 27.023438 13.445312 C 27.058594 13.378906 27.136719 13.242188 27.191406 13.136719 C 27.277344 12.972656 27.449219 12.660156 27.640625 12.316406 C 27.671875 12.261719 27.75 12.117188 27.8125 11.996094 C 27.878906 11.875 27.984375 11.683594 28.046875 11.570312 C 28.109375 11.457031 28.199219 11.292969 28.25 11.207031 C 28.40625 10.914062 29.117188 9.613281 29.191406 9.484375 L 29.261719 9.363281 L 24.335938 9.367188 L 19.410156 9.375 L 19.296875 9.597656 C 19.238281 9.714844 18.824219 10.558594 18.375 11.46875 C 17.535156 13.183594 16.023438 16.261719 15.046875 18.246094 C 14.734375 18.875 14.484375 19.402344 14.484375 19.425781 C 14.484375 19.449219 14.429688 19.460938 14.316406 19.460938 L 14.148438 19.460938 L 13.976562 19.039062 C 13.804688 18.617188 13.425781 17.707031 13.324219 17.46875 C 13.289062 17.394531 13.082031 16.890625 12.859375 16.34375 C 12.632812 15.796875 12.417969 15.273438 12.378906 15.1875 C 12.304688 15.019531 11.324219 12.644531 11.164062 12.257812 C 11.113281 12.132812 10.824219 11.429688 10.519531 10.695312 L 9.96875 9.363281 L 0.113281 9.363281 Z M 1.425781 11.988281 "/>
<path style=" stroke:none;fill-rule:nonzero;fill:rgb(92.941177%,19.607843%,21.568628%);fill-opacity:1;" d="M 10.183594 9.289062 L 0.242188 9.289062 L 0.242188 9.535156 L 8.246094 25.777344 L 14.308594 32.59375 L 19.277344 44 L 29.34375 44 L 20.371094 25.777344 L 14.308594 19.332031 Z M 10.183594 9.289062 "/>
<path style=" stroke:none;fill-rule:nonzero;fill:rgb(17.647059%,33.333334%,57.647061%);fill-opacity:1;" d="M 31.832031 9.378906 C 31.820312 9.390625 31.8125 17.160156 31.8125 26.652344 L 31.8125 43.902344 L 36.128906 43.894531 C 40.421875 43.882812 40.449219 43.882812 40.910156 43.816406 C 41.90625 43.675781 42.660156 43.484375 43.363281 43.203125 C 43.796875 43.027344 44.496094 42.644531 44.730469 42.457031 C 44.835938 42.371094 44.925781 42.300781 45.03125 42.222656 C 45.242188 42.066406 45.828125 41.453125 45.976562 41.234375 C 46 41.199219 46.03125 41.152344 46.050781 41.136719 C 46.089844 41.089844 46.308594 40.765625 46.332031 40.707031 C 46.34375 40.683594 46.382812 40.613281 46.425781 40.546875 C 47.070312 39.507812 47.523438 37.753906 47.660156 35.761719 C 47.699219 35.179688 47.699219 18.378906 47.660156 17.746094 C 47.5 15.210938 46.917969 13.3125 45.914062 12.058594 C 45.222656 11.1875 44.234375 10.554688 42.925781 10.128906 C 42.484375 9.984375 42.300781 9.933594 42.054688 9.878906 C 41.953125 9.855469 41.785156 9.8125 41.679688 9.789062 C 41.085938 9.648438 39.945312 9.5 38.863281 9.417969 C 38.375 9.378906 31.867188 9.34375 31.832031 9.378906 Z M 39.617188 13.648438 C 40.636719 13.808594 41.242188 14.070312 41.726562 14.554688 C 42.25 15.085938 42.523438 15.886719 42.699219 17.425781 C 42.746094 17.832031 42.769531 33.082031 42.726562 34.167969 C 42.671875 35.515625 42.5625 36.238281 42.269531 37.144531 C 42.128906 37.589844 41.953125 37.957031 41.722656 38.277344 C 41.625 38.414062 41.171875 38.84375 41.011719 38.953125 C 40.609375 39.226562 40.082031 39.429688 39.492188 39.542969 C 39.207031 39.597656 39.023438 39.605469 37.929688 39.617188 L 36.6875 39.632812 L 36.6875 13.570312 L 38 13.585938 C 39.023438 13.59375 39.378906 13.609375 39.617188 13.648438 Z M 39.617188 13.648438 "/>
<path style=" stroke:none;fill-rule:nonzero;fill:rgb(17.647059%,33.333334%,57.647061%);fill-opacity:1;" d="M 50.335938 27.617188 C 50.347656 38.886719 50.335938 38.164062 50.53125 39.597656 C 50.664062 40.566406 50.878906 41.375 51.148438 41.9375 C 51.265625 42.179688 51.433594 42.46875 51.5 42.539062 C 51.519531 42.5625 51.566406 42.621094 51.605469 42.675781 C 51.691406 42.792969 51.90625 43.007812 52.039062 43.109375 C 52.089844 43.148438 52.167969 43.210938 52.210938 43.25 C 52.339844 43.359375 52.96875 43.65625 53.246094 43.734375 C 54.085938 43.972656 54.964844 43.957031 55.761719 43.691406 C 56.175781 43.550781 57.023438 43.128906 57.054688 43.042969 C 57.0625 43.03125 57.085938 43.019531 57.109375 43.019531 C 57.132812 43.019531 57.148438 43.003906 57.148438 42.992188 C 57.148438 42.972656 57.167969 42.960938 57.191406 42.960938 C 57.214844 42.960938 57.234375 42.949219 57.234375 42.933594 C 57.234375 42.914062 57.25 42.902344 57.265625 42.902344 C 57.292969 42.902344 57.558594 42.714844 57.644531 42.632812 C 57.667969 42.613281 57.746094 42.550781 57.816406 42.492188 C 58.292969 42.125 59.222656 41.167969 59.613281 40.65625 C 59.675781 40.570312 59.699219 40.5625 59.832031 40.5625 L 59.980469 40.5625 L 59.957031 43.898438 L 64.171875 43.898438 L 64.171875 17.46875 L 59.703125 17.46875 L 59.703125 27.742188 C 59.703125 34.675781 59.695312 38.03125 59.675781 38.054688 C 59.601562 38.136719 59.539062 38.21875 59.472656 38.308594 C 59.429688 38.363281 59.367188 38.441406 59.324219 38.484375 C 59.285156 38.527344 59.203125 38.621094 59.132812 38.691406 C 59.070312 38.761719 58.933594 38.894531 58.835938 38.980469 C 58.734375 39.070312 58.621094 39.171875 58.582031 39.210938 C 58.539062 39.246094 58.496094 39.273438 58.484375 39.273438 C 58.476562 39.273438 58.441406 39.296875 58.410156 39.324219 C 58.253906 39.46875 57.765625 39.699219 57.460938 39.777344 C 57.136719 39.859375 56.421875 39.84375 56.117188 39.746094 C 55.785156 39.636719 55.5625 39.460938 55.351562 39.140625 C 55.082031 38.730469 54.9375 38.09375 54.886719 37.136719 C 54.867188 36.773438 54.855469 33.121094 54.855469 27.015625 L 54.855469 17.46875 L 50.324219 17.46875 Z M 50.335938 27.617188 "/>
<path style=" stroke:none;fill-rule:nonzero;fill:rgb(17.647059%,33.333334%,57.647061%);fill-opacity:1;" d="M 73.058594 17.5 C 72.421875 17.550781 71.667969 17.710938 71.140625 17.910156 C 70.652344 18.085938 69.875 18.515625 69.59375 18.761719 C 69.546875 18.796875 69.457031 18.878906 69.390625 18.933594 C 69.226562 19.070312 68.941406 19.359375 68.824219 19.503906 C 68.777344 19.566406 68.703125 19.660156 68.664062 19.707031 C 68.507812 19.898438 68.210938 20.367188 68.058594 20.660156 C 67.570312 21.574219 67.234375 22.71875 67.046875 24.042969 C 66.894531 25.136719 66.894531 25.140625 66.882812 30.1875 C 66.867188 34.964844 66.882812 35.863281 66.972656 36.78125 C 67.0625 37.660156 67.230469 38.507812 67.460938 39.304688 C 67.535156 39.550781 67.769531 40.179688 67.828125 40.285156 C 67.84375 40.320312 67.921875 40.480469 68.007812 40.648438 C 68.089844 40.820312 68.171875 40.976562 68.195312 41.003906 C 68.21875 41.027344 68.238281 41.058594 68.238281 41.070312 C 68.238281 41.082031 68.269531 41.136719 68.308594 41.1875 C 68.351562 41.242188 68.382812 41.300781 68.382812 41.316406 C 68.382812 41.335938 68.394531 41.351562 68.40625 41.351562 C 68.421875 41.351562 68.441406 41.375 68.453125 41.402344 C 68.460938 41.429688 68.496094 41.488281 68.53125 41.535156 C 68.570312 41.574219 68.625 41.648438 68.65625 41.691406 C 68.9375 42.082031 69.402344 42.519531 69.882812 42.84375 C 70.507812 43.269531 71.289062 43.589844 72.089844 43.75 C 72.761719 43.882812 73.070312 43.90625 73.957031 43.890625 C 74.859375 43.871094 75.386719 43.804688 76.015625 43.617188 C 76.347656 43.519531 76.46875 43.480469 76.550781 43.445312 C 77.046875 43.238281 77.191406 43.175781 77.378906 43.074219 C 77.578125 42.960938 77.945312 42.734375 78.027344 42.667969 C 78.046875 42.65625 78.164062 42.558594 78.292969 42.457031 C 78.789062 42.074219 79.375 41.40625 79.691406 40.859375 C 79.925781 40.46875 80.085938 40.144531 80.222656 39.785156 C 80.234375 39.753906 80.265625 39.679688 80.289062 39.625 C 80.332031 39.527344 80.449219 39.152344 80.550781 38.777344 C 80.621094 38.535156 80.738281 37.894531 80.796875 37.472656 C 80.832031 37.167969 80.84375 36.851562 80.84375 35.894531 L 80.847656 34.695312 L 76.550781 34.695312 L 76.535156 35.910156 C 76.511719 37.386719 76.484375 37.707031 76.335938 38.308594 C 76.082031 39.300781 75.527344 39.871094 74.667969 40.023438 C 74.304688 40.089844 73.578125 40.078125 73.21875 40.003906 C 72.15625 39.785156 71.597656 38.949219 71.457031 37.371094 C 71.433594 37.109375 71.429688 35.113281 71.4375 30.433594 C 71.445312 24.445312 71.453125 23.839844 71.496094 23.589844 C 71.601562 23.003906 71.65625 22.824219 71.847656 22.429688 C 72.140625 21.835938 72.621094 21.492188 73.328125 21.363281 C 73.546875 21.324219 74.40625 21.324219 74.636719 21.363281 C 75.433594 21.492188 75.976562 21.972656 76.25 22.777344 C 76.46875 23.429688 76.539062 24.136719 76.539062 25.757812 L 76.539062 26.601562 L 80.867188 26.601562 L 80.855469 25.539062 C 80.835938 24.292969 80.785156 23.808594 80.582031 22.882812 C 80.503906 22.519531 80.246094 21.714844 80.128906 21.449219 C 79.804688 20.734375 79.636719 20.441406 79.226562 19.90625 C 79.046875 19.667969 78.488281 19.089844 78.296875 18.945312 C 78.234375 18.898438 78.167969 18.84375 78.152344 18.832031 C 78.097656 18.777344 77.738281 18.523438 77.71875 18.523438 C 77.707031 18.523438 77.652344 18.488281 77.589844 18.445312 C 77.378906 18.300781 76.765625 18.023438 76.34375 17.882812 C 75.882812 17.722656 75.398438 17.617188 74.839844 17.542969 C 74.425781 17.488281 73.480469 17.464844 73.058594 17.5 Z M 73.058594 17.5 "/>
<path style=" stroke:none;fill-rule:nonzero;fill:rgb(17.647059%,33.333334%,57.647061%);fill-opacity:1;" d="M 89.351562 17.488281 C 88.433594 17.554688 87.667969 17.710938 86.972656 17.96875 C 86.8125 18.023438 86.121094 18.359375 85.984375 18.445312 C 85.875 18.515625 85.578125 18.714844 85.546875 18.742188 C 85.527344 18.757812 85.472656 18.796875 85.429688 18.832031 C 85.289062 18.929688 84.78125 19.4375 84.609375 19.648438 C 83.6875 20.785156 83.144531 22.253906 82.898438 24.257812 C 82.773438 25.285156 82.769531 25.316406 82.757812 30.171875 C 82.742188 34.949219 82.757812 35.839844 82.855469 36.785156 C 82.996094 38.207031 83.320312 39.476562 83.792969 40.472656 C 83.917969 40.742188 84.097656 41.078125 84.15625 41.148438 C 84.175781 41.171875 84.214844 41.230469 84.242188 41.285156 C 84.265625 41.335938 84.304688 41.394531 84.324219 41.417969 C 84.34375 41.4375 84.378906 41.476562 84.390625 41.5 C 84.546875 41.769531 85.140625 42.398438 85.460938 42.625 C 85.507812 42.65625 85.554688 42.699219 85.574219 42.714844 C 85.605469 42.742188 85.859375 42.914062 86.015625 43.011719 C 86.082031 43.054688 86.714844 43.367188 86.796875 43.402344 C 87.710938 43.765625 88.46875 43.898438 89.628906 43.898438 C 90.535156 43.898438 91.007812 43.84375 91.765625 43.648438 C 92.34375 43.5 93.035156 43.21875 93.414062 42.980469 C 93.480469 42.9375 93.570312 42.886719 93.617188 42.859375 C 93.808594 42.761719 94.347656 42.328125 94.632812 42.042969 C 95.84375 40.835938 96.519531 39.222656 96.707031 37.078125 C 96.722656 36.894531 96.746094 36.292969 96.757812 35.746094 C 96.773438 34.878906 96.769531 34.746094 96.734375 34.714844 C 96.699219 34.6875 96.234375 34.679688 94.558594 34.683594 L 92.429688 34.695312 L 92.410156 35.9375 C 92.398438 36.621094 92.375 37.3125 92.355469 37.472656 C 92.261719 38.269531 92.085938 38.851562 91.820312 39.238281 C 91.753906 39.339844 91.339844 39.742188 91.308594 39.742188 C 91.289062 39.742188 91.25 39.761719 91.226562 39.785156 C 91.15625 39.847656 90.796875 39.976562 90.5625 40.023438 C 90.429688 40.050781 90.164062 40.0625 89.859375 40.0625 C 89.160156 40.0625 88.839844 39.992188 88.453125 39.757812 C 88.28125 39.652344 88.058594 39.453125 87.902344 39.265625 C 87.789062 39.128906 87.609375 38.738281 87.523438 38.429688 C 87.316406 37.722656 87.304688 37.496094 87.304688 34.265625 L 87.304688 31.429688 L 97 31.429688 L 97 28.902344 C 97 26.238281 96.984375 25.867188 96.855469 24.835938 C 96.660156 23.3125 96.28125 21.960938 95.761719 20.953125 C 95.539062 20.523438 95.519531 20.488281 95.441406 20.375 C 95.402344 20.324219 95.375 20.273438 95.375 20.257812 C 95.375 20.242188 95.351562 20.207031 95.324219 20.171875 C 95.292969 20.140625 95.242188 20.078125 95.210938 20.03125 C 95.152344 19.941406 95.140625 19.921875 95.0625 19.824219 C 95.035156 19.789062 94.972656 19.707031 94.925781 19.648438 C 94.804688 19.488281 94.351562 19.027344 94.140625 18.855469 C 93.09375 17.988281 91.691406 17.519531 90.0625 17.488281 C 89.753906 17.480469 89.433594 17.480469 89.351562 17.488281 Z M 90.527344 21.363281 C 90.96875 21.433594 91.316406 21.613281 91.617188 21.914062 C 91.9375 22.238281 92.136719 22.660156 92.269531 23.300781 C 92.375 23.828125 92.390625 24.105469 92.40625 25.875 L 92.417969 27.625 L 87.304688 27.625 L 87.316406 25.742188 C 87.328125 23.71875 87.332031 23.648438 87.496094 23.03125 C 87.597656 22.648438 87.8125 22.207031 88.003906 21.992188 C 88.285156 21.683594 88.679688 21.464844 89.132812 21.375 C 89.367188 21.328125 90.273438 21.320312 90.527344 21.363281 Z M 90.527344 21.363281 "/>
</g>
</svg>
